<svg width="24" height="24" viewBox="0 0 24 24" fill="none" xmlns="http://www.w3.org/2000/svg">
<path d="M10.1818 3.9H22M10.1818 3.9C10.1818 4.40391 9.99026 4.88718 9.64929 5.2435C9.30831 5.59982 8.84585 5.8 8.36364 5.8C7.88142 5.8 7.41896 5.59982 7.07799 5.2435C6.73701 4.88718 6.54545 4.40391 6.54545 3.9M10.1818 3.9C10.1818 3.39609 9.99026 2.91282 9.64929 2.5565C9.30831 2.20018 8.84585 2 8.36364 2C7.88142 2 7.41896 2.20018 7.07799 2.5565C6.73701 2.91282 6.54545 3.39609 6.54545 3.9M6.54545 3.9H2M10.1818 19.1H22M10.1818 19.1C10.1818 19.6039 9.99026 20.0872 9.64929 20.4435C9.30831 20.7998 8.84585 21 8.36364 21C7.88142 21 7.41896 20.7998 7.07799 20.4435C6.73701 20.0872 6.54545 19.6039 6.54545 19.1M10.1818 19.1C10.1818 18.5961 9.99026 18.1128 9.64929 17.7565C9.30831 17.4002 8.84585 17.2 8.36364 17.2C7.88142 17.2 7.41896 17.4002 7.07799 17.7565C6.73701 18.1128 6.54545 18.5961 6.54545 19.1M6.54545 19.1H2M17.4545 11.5H22M17.4545 11.5C17.4545 12.0039 17.263 12.4872 16.922 12.8435C16.581 13.1998 16.1186 13.4 15.6364 13.4C15.1542 13.4 14.6917 13.1998 14.3507 12.8435C14.0097 12.4872 13.8182 12.0039 13.8182 11.5M17.4545 11.5C17.4545 10.9961 17.263 10.5128 16.922 10.1565C16.581 9.80018 16.1186 9.6 15.6364 9.6C15.1542 9.6 14.6917 9.80018 14.3507 10.1565C14.0097 10.5128 13.8182 10.9961 13.8182 11.5M13.8182 11.5H2" stroke="#1F2937" stroke-width="1.5" stroke-linecap="round" stroke-linejoin="round"/>
</svg>
