<svg width="131" height="40" viewBox="0 0 131 40" fill="none" xmlns="http://www.w3.org/2000/svg">
<g clip-path="url(#clip0_37_322)">
<path fill-rule="evenodd" clip-rule="evenodd" d="M20 0C8.95431 0 0 8.95431 0 20C0 31.0457 8.95431 40 20 40C31.0457 40 40 31.0457 40 20C40 8.95431 31.0457 0 20 0ZM20 10C14.4772 10 10 14.4772 10 20C10 25.5228 14.4772 30 20 30C25.5228 30 30 25.5228 30 20C30 14.4772 25.5228 10 20 10Z" fill="url(#paint0_linear_37_322)"/>
<path d="M12 31.6667C12 36.269 15.731 40 20.3333 40H38.3333C39.2538 40 40 39.2538 40 38.3333C40 33.731 36.269 30 31.6667 30H13.6667C12.7462 30 12 30.7462 12 31.6667Z" fill="url(#paint1_linear_37_322)"/>
<path d="M53.143 40C51.4015 40 49.8251 39.6072 48.4138 38.8216C47.0326 38.0058 45.9517 36.8879 45.171 35.4678C44.3903 34.0478 44 32.4011 44 30.5278V20.019C44 18.9144 44.8954 18.019 46 18.019H46.0535C47.1581 18.019 48.0535 18.9144 48.0535 20.019V30.3465C48.0535 31.5249 48.2487 32.5521 48.639 33.4284C49.0594 34.2744 49.6599 34.924 50.4406 35.3772C51.2213 35.8304 52.1371 36.057 53.188 36.057C54.7794 36.057 56.0255 35.5585 56.9263 34.5614C57.8271 33.5341 58.2774 32.1291 58.2774 30.3465V20.019C58.2774 18.9144 59.1729 18.019 60.2774 18.019H60.331C61.4355 18.019 62.331 18.9144 62.331 20.019V30.5278C62.331 32.4011 61.9406 34.0478 61.16 35.4678C60.3793 36.8879 59.2983 38.0058 57.9171 38.8216C56.566 39.6072 54.9746 40 53.143 40Z" fill="black"/>
<path d="M53.143 40C51.4015 40 49.8251 39.6072 48.4138 38.8216C47.0326 38.0058 45.9517 36.8879 45.171 35.4678C44.3903 34.0478 44 32.4011 44 30.5278V20.019C44 18.9144 44.8954 18.019 46 18.019H46.0535C47.1581 18.019 48.0535 18.9144 48.0535 20.019V30.3465C48.0535 31.5249 48.2487 32.5521 48.639 33.4284C49.0594 34.2744 49.6599 34.924 50.4406 35.3772C51.2213 35.8304 52.1371 36.057 53.188 36.057C54.7794 36.057 56.0255 35.5585 56.9263 34.5614C57.8271 33.5341 58.2774 32.1291 58.2774 30.3465V20.019C58.2774 18.9144 59.1729 18.019 60.2774 18.019H60.331C61.4355 18.019 62.331 18.9144 62.331 20.019V30.5278C62.331 32.4011 61.9406 34.0478 61.16 35.4678C60.3793 36.8879 59.2983 38.0058 57.9171 38.8216C56.566 39.6072 54.9746 40 53.143 40Z" fill="url(#paint2_linear_37_322)"/>
<path d="M76.8618 40C74.9101 40 73.1385 39.5166 71.5471 38.5497C69.9557 37.5526 68.6946 36.2081 67.7638 34.5161C66.8631 32.8241 66.4127 30.9206 66.4127 28.8056C66.4127 26.6905 66.8631 24.787 67.7638 23.095C68.6946 21.403 69.9407 20.0585 71.5021 19.0614C73.0935 18.0643 74.88 17.5658 76.8618 17.5658C78.4832 17.5658 79.9244 17.9133 81.1855 18.6082C82.4767 19.2729 83.5126 20.2096 84.2932 21.4181C85.0739 22.5965 85.5093 23.9712 85.5994 25.5424V32.0234C85.5093 33.5643 85.0739 34.9391 84.2932 36.1477C83.5426 37.3562 82.5217 38.308 81.2306 39.0029C79.9695 39.6676 78.5132 40 76.8618 40ZM77.5374 36.1477C79.5491 36.1477 81.1705 35.4678 82.4016 34.1082C83.6327 32.7183 84.2482 30.9508 84.2482 28.8056C84.2482 27.325 83.963 26.0409 83.3925 24.9532C82.852 23.8353 82.0713 22.9742 81.0504 22.3699C80.0295 21.7354 78.8435 21.4181 77.4923 21.4181C76.1411 21.4181 74.9401 21.7354 73.8892 22.3699C72.8683 23.0044 72.0576 23.8806 71.4571 24.9985C70.8866 26.0863 70.6013 27.3402 70.6013 28.7602C70.6013 30.2105 70.8866 31.4946 71.4571 32.6126C72.0576 33.7003 72.8833 34.5614 73.9342 35.1959C74.9851 35.8304 76.1862 36.1477 77.5374 36.1477ZM85.978 39.5468C84.8734 39.5468 83.978 38.6514 83.978 37.5468V33.8905C83.978 33.794 83.9849 33.6977 83.9988 33.6023L84.7015 28.7778C84.7294 28.5858 84.7293 28.3908 84.7011 28.1989L83.9992 23.4209C83.9851 23.3246 83.978 23.2275 83.978 23.1302V20.019C83.978 18.9144 84.8734 18.019 85.978 18.019H86.0765C87.1811 18.019 88.0765 18.9144 88.0765 20.019V37.5468C88.0765 38.6514 87.1811 39.5468 86.0765 39.5468H85.978Z" fill="black"/>
<path d="M76.8618 40C74.9101 40 73.1385 39.5166 71.5471 38.5497C69.9557 37.5526 68.6946 36.2081 67.7638 34.5161C66.8631 32.8241 66.4127 30.9206 66.4127 28.8056C66.4127 26.6905 66.8631 24.787 67.7638 23.095C68.6946 21.403 69.9407 20.0585 71.5021 19.0614C73.0935 18.0643 74.88 17.5658 76.8618 17.5658C78.4832 17.5658 79.9244 17.9133 81.1855 18.6082C82.4767 19.2729 83.5126 20.2096 84.2932 21.4181C85.0739 22.5965 85.5093 23.9712 85.5994 25.5424V32.0234C85.5093 33.5643 85.0739 34.9391 84.2932 36.1477C83.5426 37.3562 82.5217 38.308 81.2306 39.0029C79.9695 39.6676 78.5132 40 76.8618 40ZM77.5374 36.1477C79.5491 36.1477 81.1705 35.4678 82.4016 34.1082C83.6327 32.7183 84.2482 30.9508 84.2482 28.8056C84.2482 27.325 83.963 26.0409 83.3925 24.9532C82.852 23.8353 82.0713 22.9742 81.0504 22.3699C80.0295 21.7354 78.8435 21.4181 77.4923 21.4181C76.1411 21.4181 74.9401 21.7354 73.8892 22.3699C72.8683 23.0044 72.0576 23.8806 71.4571 24.9985C70.8866 26.0863 70.6013 27.3402 70.6013 28.7602C70.6013 30.2105 70.8866 31.4946 71.4571 32.6126C72.0576 33.7003 72.8833 34.5614 73.9342 35.1959C74.9851 35.8304 76.1862 36.1477 77.5374 36.1477ZM85.978 39.5468C84.8734 39.5468 83.978 38.6514 83.978 37.5468V33.8905C83.978 33.794 83.9849 33.6977 83.9988 33.6023L84.7015 28.7778C84.7294 28.5858 84.7293 28.3908 84.7011 28.1989L83.9992 23.4209C83.9851 23.3246 83.978 23.2275 83.978 23.1302V20.019C83.978 18.9144 84.8734 18.019 85.978 18.019H86.0765C87.1811 18.019 88.0765 18.9144 88.0765 20.019V37.5468C88.0765 38.6514 87.1811 39.5468 86.0765 39.5468H85.978Z" fill="url(#paint3_linear_37_322)"/>
<path d="M111.111 39.5468C110.007 39.5468 109.111 38.6514 109.111 37.5468V26.9927C109.111 25.3611 108.601 24.0166 107.58 22.9591C106.559 21.9016 105.238 21.3728 103.616 21.3728C102.536 21.3728 101.575 21.6145 100.734 22.098C99.8932 22.5814 99.2327 23.2461 98.7523 24.0921C98.4928 24.5489 98.3035 25.041 98.1841 25.5683C98.0429 26.1922 97.3406 26.5981 96.7852 26.2808C96.5255 26.1325 96.3625 25.8561 96.376 25.5574C96.4408 24.1214 96.7975 22.8323 97.4461 21.6901C98.1667 20.4211 99.1726 19.424 100.464 18.6988C101.755 17.9435 103.211 17.5658 104.833 17.5658C106.454 17.5658 107.88 17.9737 109.111 18.7895C110.372 19.6053 111.363 20.6779 112.084 22.0073C112.804 23.3065 113.165 24.6964 113.165 26.1769V37.5468C113.165 38.6514 112.269 39.5468 111.165 39.5468H111.111ZM95.9781 39.5468C94.8735 39.5468 93.9781 38.6514 93.9781 37.5468V20.019C93.9781 18.9144 94.8735 18.019 95.9781 18.019H96.0316C97.1362 18.019 98.0316 18.9144 98.0316 20.019V37.5468C98.0316 38.6514 97.1362 39.5468 96.0316 39.5468H95.9781Z" fill="black"/>
<path d="M111.111 39.5468C110.007 39.5468 109.111 38.6514 109.111 37.5468V26.9927C109.111 25.3611 108.601 24.0166 107.58 22.9591C106.559 21.9016 105.238 21.3728 103.616 21.3728C102.536 21.3728 101.575 21.6145 100.734 22.098C99.8932 22.5814 99.2327 23.2461 98.7523 24.0921C98.4928 24.5489 98.3035 25.041 98.1841 25.5683C98.0429 26.1922 97.3406 26.5981 96.7852 26.2808C96.5255 26.1325 96.3625 25.8561 96.376 25.5574C96.4408 24.1214 96.7975 22.8323 97.4461 21.6901C98.1667 20.4211 99.1726 19.424 100.464 18.6988C101.755 17.9435 103.211 17.5658 104.833 17.5658C106.454 17.5658 107.88 17.9737 109.111 18.7895C110.372 19.6053 111.363 20.6779 112.084 22.0073C112.804 23.3065 113.165 24.6964 113.165 26.1769V37.5468C113.165 38.6514 112.269 39.5468 111.165 39.5468H111.111ZM95.9781 39.5468C94.8735 39.5468 93.9781 38.6514 93.9781 37.5468V20.019C93.9781 18.9144 94.8735 18.019 95.9781 18.019H96.0316C97.1362 18.019 98.0316 18.9144 98.0316 20.019V37.5468C98.0316 38.6514 97.1362 39.5468 96.0316 39.5468H95.9781Z" fill="url(#paint4_linear_37_322)"/>
<path d="M123.677 39.5468C122.572 39.5468 121.677 38.6514 121.677 37.5468V11C121.677 9.89543 122.572 9 123.677 9H123.73C124.835 9 125.73 9.89543 125.73 11V37.5468C125.73 38.6514 124.835 39.5468 123.73 39.5468H123.677ZM118.265 21.7354C117.239 21.7354 116.407 20.9034 116.407 19.8772C116.407 18.8509 117.239 18.019 118.265 18.019H129.142C130.168 18.019 131 18.8509 131 19.8772C131 20.9034 130.168 21.7354 129.142 21.7354H118.265Z" fill="black"/>
<path d="M123.677 39.5468C122.572 39.5468 121.677 38.6514 121.677 37.5468V11C121.677 9.89543 122.572 9 123.677 9H123.73C124.835 9 125.73 9.89543 125.73 11V37.5468C125.73 38.6514 124.835 39.5468 123.73 39.5468H123.677ZM118.265 21.7354C117.239 21.7354 116.407 20.9034 116.407 19.8772C116.407 18.8509 117.239 18.019 118.265 18.019H129.142C130.168 18.019 131 18.8509 131 19.8772C131 20.9034 130.168 21.7354 129.142 21.7354H118.265Z" fill="url(#paint5_linear_37_322)"/>
</g>
<defs>
<linearGradient id="paint0_linear_37_322" x1="22.5" y1="13.5" x2="14.5" y2="30.5" gradientUnits="userSpaceOnUse">
<stop stop-color="#1E40AF"/>
<stop offset="1" stop-color="#2563EB"/>
</linearGradient>
<linearGradient id="paint1_linear_37_322" x1="39.0968" y1="38.5" x2="22.5668" y2="22.8007" gradientUnits="userSpaceOnUse">
<stop stop-color="#10B981"/>
<stop offset="1" stop-color="#2563EB"/>
</linearGradient>
<linearGradient id="paint2_linear_37_322" x1="92.9375" y1="19.4625" x2="90.3129" y2="35.115" gradientUnits="userSpaceOnUse">
<stop stop-color="#1E40AF"/>
<stop offset="1" stop-color="#2563EB"/>
</linearGradient>
<linearGradient id="paint3_linear_37_322" x1="92.9375" y1="19.4625" x2="90.3129" y2="35.115" gradientUnits="userSpaceOnUse">
<stop stop-color="#1E40AF"/>
<stop offset="1" stop-color="#2563EB"/>
</linearGradient>
<linearGradient id="paint4_linear_37_322" x1="92.9375" y1="19.4625" x2="90.3129" y2="35.115" gradientUnits="userSpaceOnUse">
<stop stop-color="#1E40AF"/>
<stop offset="1" stop-color="#2563EB"/>
</linearGradient>
<linearGradient id="paint5_linear_37_322" x1="92.9375" y1="19.4625" x2="90.3129" y2="35.115" gradientUnits="userSpaceOnUse">
<stop stop-color="#1E40AF"/>
<stop offset="1" stop-color="#2563EB"/>
</linearGradient>
<clipPath id="clip0_37_322">
<rect width="131" height="40" fill="white"/>
</clipPath>
</defs>
</svg>
