<svg width="40" height="40" viewBox="0 0 40 40" fill="none" xmlns="http://www.w3.org/2000/svg">
<g clip-path="url(#clip0_37_321)">
<path fill-rule="evenodd" clip-rule="evenodd" d="M20 0C8.95431 0 0 8.95431 0 20C0 31.0457 8.95431 40 20 40C31.0457 40 40 31.0457 40 20C40 8.95431 31.0457 0 20 0ZM20 10C14.4772 10 10 14.4772 10 20C10 25.5228 14.4772 30 20 30C25.5228 30 30 25.5228 30 20C30 14.4772 25.5228 10 20 10Z" fill="url(#paint0_linear_37_321)"/>
<path d="M12 31.6667C12 36.269 15.731 40 20.3333 40H38.3333C39.2538 40 40 39.2538 40 38.3333C40 33.731 36.269 30 31.6667 30H13.6667C12.7462 30 12 30.7462 12 31.6667Z" fill="url(#paint1_linear_37_321)"/>
</g>
<defs>
<linearGradient id="paint0_linear_37_321" x1="22.5" y1="13.5" x2="14.5" y2="30.5" gradientUnits="userSpaceOnUse">
<stop stop-color="#1E40AF"/>
<stop offset="1" stop-color="#2563EB"/>
</linearGradient>
<linearGradient id="paint1_linear_37_321" x1="39.0968" y1="38.5" x2="22.5668" y2="22.8007" gradientUnits="userSpaceOnUse">
<stop stop-color="#10B981"/>
<stop offset="1" stop-color="#2563EB"/>
</linearGradient>
<clipPath id="clip0_37_321">
<rect width="40" height="40" fill="white"/>
</clipPath>
</defs>
</svg>
