<svg width="24" height="24" viewBox="0 0 24 24" fill="none" xmlns="http://www.w3.org/2000/svg">
<g clip-path="url(#clip0_53_5143)">
<path d="M11.4321 2.39928C11.4783 2.28119 11.5569 2.18017 11.6581 2.10907C11.7592 2.03797 11.8782 2 12 2C12.1218 2 12.2408 2.03797 12.3419 2.10907C12.443 2.18017 12.5217 2.28119 12.5679 2.39928L14.8887 8.24962C14.9321 8.35909 15.0035 8.45388 15.0951 8.52355C15.1866 8.59323 15.2947 8.63509 15.4074 8.64453L21.4338 9.15047C21.9788 9.19625 22.1994 9.90938 21.7844 10.2814L17.1931 14.4044C17.1073 14.4814 17.0434 14.5815 17.0083 14.694C16.9732 14.8065 16.9684 14.9269 16.9943 15.042L18.3977 21.206C18.4259 21.3297 18.4185 21.4593 18.3764 21.5786C18.3344 21.6978 18.2596 21.8014 18.1614 21.8761C18.0632 21.9508 17.9461 21.9933 17.8249 21.9984C17.7037 22.0034 17.5838 21.9706 17.4803 21.9042L12.32 18.6019C12.2236 18.5402 12.1129 18.5076 12 18.5076C11.8871 18.5076 11.7764 18.5402 11.68 18.6019L6.51969 21.9054C6.41621 21.9718 6.2963 22.0045 6.17507 21.9995C6.05385 21.9945 5.93676 21.9519 5.8386 21.8772C5.74044 21.8025 5.6656 21.699 5.62354 21.5797C5.58148 21.4605 5.57409 21.3308 5.6023 21.2071L7.00568 15.042C7.03171 14.9269 7.02693 14.8064 6.99186 14.6939C6.95679 14.5814 6.8928 14.4813 6.80692 14.4044L2.2156 10.2814C2.12315 10.1988 2.05616 10.0893 2.02312 9.96674C1.99009 9.84421 1.9925 9.71415 2.03004 9.59305C2.06758 9.47195 2.13856 9.36525 2.23401 9.28646C2.32945 9.20767 2.44505 9.16034 2.56618 9.15047L8.59255 8.64453C8.70531 8.63509 8.8134 8.59323 8.90493 8.52355C8.99645 8.45388 9.06787 8.35909 9.11131 8.24962L11.4321 2.39928Z" stroke="#1F2937" stroke-width="1.5" stroke-linecap="round" stroke-linejoin="round"/>
</g>
<defs>
<clipPath id="clip0_53_5143">
<rect width="24" height="24" fill="white"/>
</clipPath>
</defs>
</svg>
